<svg width="66" height="66" viewBox="0 0 66 66" fill="none" xmlns="http://www.w3.org/2000/svg">
<path opacity="0.1" d="M33.3263 65.1575C51.2533 65.1575 65.786 50.6216 65.786 32.6908C65.786 14.7599 51.2533 0.224121 33.3263 0.224121C15.3994 0.224121 0.866699 14.7599 0.866699 32.6908C0.866699 50.6216 15.3994 65.1575 33.3263 65.1575Z" fill="#111827"/>
<path d="M33.3265 44.2739C34.6209 43.2191 35.8656 42.2256 36.8887 41.409C40.3481 38.6469 43.3358 36.2615 45.3099 34.0297C47.2262 31.8635 48.0807 29.9741 48.0807 27.9032C48.0807 25.9568 47.3843 24.1771 46.1198 22.892C44.8458 21.5975 43.0772 20.8846 41.1397 20.8846C39.7105 20.8846 38.4569 21.2896 37.307 22.1228C36.7065 22.5578 36.153 23.1009 35.6617 23.7371C35.103 24.4608 34.2405 24.8845 33.3263 24.8845C33.3263 24.8845 33.3261 24.8845 33.3261 24.8845C32.4118 24.8844 31.5493 24.4604 30.9906 23.7366C30.5001 23.1011 29.9466 22.5581 29.3458 22.1227C28.1961 21.2896 26.9425 20.8846 25.5133 20.8846C23.5758 20.8846 21.8072 21.5975 20.5333 22.8919C19.2685 24.1773 18.572 25.957 18.572 27.9032C18.572 29.9738 19.4267 31.8634 21.3432 34.03C23.3177 36.2621 26.3058 38.6477 29.7656 41.41C29.7712 41.4144 29.7767 41.4188 29.7822 41.4233C30.8575 42.2817 32.059 43.241 33.3265 44.2739ZM33.3264 47.4483C32.8222 47.4483 32.3362 47.2772 31.9574 46.9663C30.5269 45.7945 29.1478 44.6932 27.931 43.7218L27.9248 43.7167C24.3573 40.8685 21.2766 38.4088 19.1332 35.9859C16.7371 33.2771 15.6211 30.7089 15.6211 27.9032C15.6211 25.1772 16.6188 22.6624 18.4302 20.8215C20.2633 18.9589 22.7785 17.9331 25.5133 17.9331C27.5573 17.9331 29.4293 18.5385 31.077 19.7324C31.9085 20.3351 32.6623 21.0726 33.3264 21.9329C33.9907 21.0726 34.7442 20.3351 35.576 19.7324C37.2237 18.5385 39.0956 17.9331 41.1397 17.9331C43.8743 17.9331 46.3897 18.9589 48.2228 20.8215C50.0342 22.6624 51.0316 25.1772 51.0316 27.9032C51.0316 30.7089 49.9159 33.2771 47.5198 35.9856C45.3763 38.4088 42.296 40.8683 38.729 43.7162C37.5101 44.6892 36.1287 45.7922 34.695 46.9669C34.3165 47.2772 33.8302 47.4483 33.3264 47.4483Z" fill="#111827"/>
</svg>
