<svg width="32" height="31" viewBox="0 0 32 31" fill="none" xmlns="http://www.w3.org/2000/svg">
<path fill-rule="evenodd" clip-rule="evenodd" d="M30.8953 19.0482C28.848 27.2643 20.5258 32.265 12.3083 30.2152C4.09476 28.1678 -0.905973 19.8443 1.14263 11.6295C3.19123 3.41206 11.5122 -1.58995 19.7283 0.459929C27.9457 2.50853 32.9452 10.832 30.8966 19.0494L30.8953 19.0482ZM22.7814 13.1528C23.0881 11.1119 21.5328 10.0141 19.4075 9.28311L20.0976 6.51756L18.4145 6.09838L17.7436 8.78981C17.2952 8.67974 16.8458 8.57409 16.3953 8.47287L17.0727 5.76355L15.3896 5.34437L14.6994 8.10736C14.3408 8.02695 13.9829 7.94303 13.6259 7.8556L13.6272 7.84666L11.3064 7.26773L10.8591 9.06457C10.8591 9.06457 12.1077 9.35084 12.0809 9.36873C12.7633 9.5387 12.886 9.98983 12.8655 10.3477L12.0796 13.4966C12.1269 13.5094 12.1882 13.526 12.2547 13.5528L12.077 13.5081L10.978 17.921C10.8936 18.128 10.6828 18.4386 10.2061 18.3197C10.2227 18.3453 8.98304 18.0143 8.98304 18.0143L8.14724 19.9415L10.3364 20.4872C10.7454 20.5894 11.1441 20.6955 11.5377 20.7964L10.8399 23.5927L12.5218 24.0118L13.2119 21.2463C13.6707 21.3702 14.1154 21.4853 14.5525 21.5939L13.8649 24.3479L15.548 24.7671L16.2432 21.976C19.1136 22.5192 21.2708 22.2993 22.1795 19.7038C22.9118 17.6143 22.1424 16.4091 20.6331 15.6232C21.7322 15.3701 22.5603 14.6468 22.7814 13.1528ZM18.9372 18.5446C18.4171 20.6341 14.8988 19.5031 13.7576 19.222L14.6816 15.5158C15.8228 15.8008 19.4804 16.3644 18.9372 18.5446ZM19.4574 13.1222C18.9832 15.0225 16.0541 14.0576 15.1046 13.8212L15.9429 10.4601C16.8925 10.6978 19.9519 11.14 19.4574 13.1222Z" fill="black"/>
</svg>
