<svg width="47" height="35" viewBox="0 0 47 35" fill="none" xmlns="http://www.w3.org/2000/svg">
<path d="M37.0293 6.70488C37.0293 6.45085 37.132 6.20723 37.3147 6.02761C37.4975 5.84798 37.7453 5.74707 38.0038 5.74707H41.9016C42.16 5.74707 42.4079 5.84798 42.5907 6.02761C42.7734 6.20723 42.8761 6.45085 42.8761 6.70488V8.62049C42.8761 8.87451 42.7734 9.11813 42.5907 9.29776C42.4079 9.47738 42.16 9.57829 41.9016 9.57829H38.0038C37.7453 9.57829 37.4975 9.47738 37.3147 9.29776C37.132 9.11813 37.0293 8.87451 37.0293 8.62049V6.70488Z" fill="black"/>
<path d="M19.4892 0C18.4554 0 17.4639 0.403645 16.733 1.12214C16.002 1.84063 15.5913 2.81512 15.5913 3.83122V19.1561C15.5913 20.1722 16.002 21.1467 16.733 21.8652C17.4639 22.5837 18.4554 22.9873 19.4892 22.9873H42.8762C43.91 22.9873 44.9014 22.5837 45.6324 21.8652C46.3634 21.1467 46.774 20.1722 46.774 19.1561V3.83122C46.774 2.81512 46.3634 1.84063 45.6324 1.12214C44.9014 0.403645 43.91 0 42.8762 0H19.4892ZM44.8251 3.83122V13.4093H17.5402V3.83122C17.5402 3.32317 17.7456 2.83593 18.1111 2.47668C18.4765 2.11743 18.9723 1.91561 19.4892 1.91561H42.8762C43.3931 1.91561 43.8888 2.11743 44.2543 2.47668C44.6198 2.83593 44.8251 3.32317 44.8251 3.83122ZM42.8762 21.0717H19.4892C18.9723 21.0717 18.4765 20.8699 18.1111 20.5106C17.7456 20.1514 17.5402 19.6642 17.5402 19.1561V17.2405H44.8251V19.1561C44.8251 19.6642 44.6198 20.1514 44.2543 20.5106C43.8888 20.8699 43.3931 21.0717 42.8762 21.0717Z" fill="black"/>
<path d="M0 14.8991C0 13.883 0.410664 12.9085 1.14165 12.19C1.87264 11.4715 2.86407 11.0679 3.89784 11.0679H27.2849C28.3187 11.0679 29.3101 11.4715 30.0411 12.19C30.7721 12.9085 31.1827 13.883 31.1827 14.8991V24.4771H0V14.8991ZM22.4126 16.8147C22.1541 16.8147 21.9063 16.9156 21.7235 17.0952C21.5408 17.2749 21.4381 17.5185 21.4381 17.7725V19.6881C21.4381 19.9421 21.5408 20.1858 21.7235 20.3654C21.9063 20.545 22.1541 20.6459 22.4126 20.6459H26.3104C26.5689 20.6459 26.8167 20.545 26.9995 20.3654C27.1822 20.1858 27.2849 19.9421 27.2849 19.6881V17.7725C27.2849 17.5185 27.1822 17.2749 26.9995 17.0952C26.8167 16.9156 26.5689 16.8147 26.3104 16.8147H22.4126ZM0 28.3083V30.224C0 31.2401 0.410664 32.2145 1.14165 32.933C1.87264 33.6515 2.86407 34.0552 3.89784 34.0552H27.2849C28.3187 34.0552 29.3101 33.6515 30.0411 32.933C30.7721 32.2145 31.1827 31.2401 31.1827 30.224V28.3083H0Z" fill="black"/>
</svg>
