<svg width="70" height="19" viewBox="0 0 70 19" fill="none" xmlns="http://www.w3.org/2000/svg">
<path d="M46.875 0.0625H41.5625C41.25 0.0625 40.9375 0.374999 40.7812 0.687499L38.5938 14.4375C38.5938 14.75 38.75 14.9062 39.0625 14.9062H41.875C42.1875 14.9062 42.3437 14.75 42.3437 14.4375L42.9687 10.5313C42.9687 10.2188 43.2812 9.90625 43.75 9.90625H45.4687C49.0625 9.90625 51.0937 8.1875 51.5625 4.75C51.875 3.34375 51.5625 2.09375 50.9375 1.3125C50 0.531249 48.5937 0.0625 46.875 0.0625M47.5 5.21875C47.1875 7.09375 45.7812 7.09375 44.375 7.09375H43.4375L44.0625 3.5C44.0625 3.34375 44.2187 3.1875 44.5312 3.1875H44.8438C45.7813 3.1875 46.7187 3.1875 47.1875 3.8125C47.5 3.96875 47.5 4.4375 47.5 5.21875" fill="black"/>
<path d="M8.59375 0.0625H3.28125C2.96875 0.0625 2.65625 0.374999 2.5 0.687499L0.3125 14.4375C0.3125 14.75 0.468752 14.9062 0.781252 14.9062H3.28125C3.59375 14.9062 3.90625 14.5937 4.0625 14.2812L4.6875 10.5313C4.6875 10.2188 5 9.90625 5.46875 9.90625H7.1875C10.7812 9.90625 12.8125 8.1875 13.2813 4.75C13.5938 3.34375 13.2812 2.09375 12.6562 1.3125C11.7187 0.531249 10.4688 0.0625 8.59375 0.0625M9.21875 5.21875C8.90625 7.09375 7.5 7.09375 6.09375 7.09375H5.3125L5.9375 3.5C5.9375 3.34375 6.09375 3.1875 6.40625 3.1875H6.71875C7.65625 3.1875 8.59375 3.1875 9.0625 3.8125C9.21875 3.96875 9.375 4.4375 9.21875 5.21875ZM24.6875 5.0625H22.1875C22.0313 5.0625 21.7187 5.21875 21.7187 5.375L21.5625 6.15625L21.4063 5.84375C20.7813 5.0625 19.6875 4.75 18.4375 4.75C15.625 4.75 13.125 6.9375 12.6562 9.90625C12.3437 11.4687 12.8125 12.875 13.5938 13.8125C14.375 14.75 15.4688 15.0625 16.875 15.0625C19.2188 15.0625 20.4687 13.6563 20.4687 13.6563L20.3125 14.4375C20.3125 14.75 20.4688 14.9062 20.7813 14.9062H23.125C23.4375 14.9062 23.75 14.5937 23.9063 14.2812L25.3125 5.53125C25.1563 5.375 24.8438 5.0625 24.6875 5.0625M21.0938 10.0625C20.7813 11.4687 19.6875 12.5625 18.125 12.5625C17.3437 12.5625 16.7188 12.25 16.4063 11.9375C16.0938 11.4687 15.9375 10.8437 15.9375 10.0625C16.0938 8.65625 17.3438 7.5625 18.75 7.5625C19.5313 7.5625 20 7.875 20.4687 8.1875C20.9375 8.65625 21.0938 9.4375 21.0938 10.0625Z" fill="#212121"/>
<path d="M62.8127 5.0625H60.3127C60.1565 5.0625 59.844 5.21875 59.844 5.375L59.6877 6.15625L59.5315 5.84375C58.9065 5.0625 57.8127 4.75 56.5627 4.75C53.7502 4.75 51.2502 6.9375 50.7815 9.90625C50.469 11.4687 50.9377 12.875 51.719 13.8125C52.5002 14.75 53.594 15.0625 55.0002 15.0625C57.344 15.0625 58.594 13.6563 58.594 13.6563L58.4377 14.4375C58.4377 14.75 58.594 14.9063 58.9065 14.9063H61.2502C61.5627 14.9063 61.8752 14.5937 62.0315 14.2812L63.4377 5.53125C63.2815 5.375 63.1252 5.0625 62.8127 5.0625M59.219 10.0625C58.9065 11.4687 57.8127 12.5625 56.2502 12.5625C55.469 12.5625 54.844 12.25 54.5315 11.9375C54.219 11.4687 54.0627 10.8437 54.0627 10.0625C54.219 8.65625 55.469 7.5625 56.8752 7.5625C57.6565 7.5625 58.1252 7.875 58.594 8.1875C59.219 8.65625 59.3752 9.4375 59.219 10.0625Z" fill="black"/>
<path d="M38.2813 5.0625H35.625C35.3125 5.0625 35.1562 5.21875 35 5.375L31.5625 10.6875L30 5.6875C29.8438 5.375 29.6875 5.21875 29.2188 5.21875H26.7187C26.4062 5.21875 26.25 5.53125 26.25 5.84375L29.0625 14.125L26.4062 17.875C26.25 18.1875 26.4062 18.6562 26.7187 18.6562H29.2188C29.5313 18.6562 29.6875 18.5 29.8437 18.3438L38.4375 6C38.9062 5.53125 38.5938 5.0625 38.2813 5.0625" fill="#212121"/>
<path d="M65.7812 0.531025L63.5938 14.5935C63.5938 14.906 63.75 15.0623 64.0625 15.0623H66.25C66.5625 15.0623 66.875 14.7498 67.0312 14.4373L69.2187 0.687276C69.2187 0.374776 69.0625 0.218524 68.75 0.218524H66.25C66.0937 0.062274 65.9375 0.218525 65.7812 0.531025" fill="black"/>
</svg>
