<svg width="59" height="60" viewBox="0 0 59 60" fill="none" xmlns="http://www.w3.org/2000/svg">
<path d="M58.7799 0.574707H0.0559082V59.2987H58.7799V0.574707Z" fill="black" fill-opacity="0.3"/>
<path d="M40.233 20.8954C39.6078 20.2702 38.8664 19.7742 38.0492 19.436C37.2332 19.0976 36.3585 18.9233 35.4739 18.9233C34.5906 18.9233 33.7146 19.0976 32.8986 19.436C32.0814 19.7742 31.34 20.2702 30.7148 20.8954L29.418 22.1922L28.1212 20.8954C26.8586 19.6332 25.1471 18.9241 23.3621 18.9241C21.5771 18.9241 19.8656 19.6332 18.603 20.8954C17.3404 22.1576 16.6321 23.8694 16.6321 25.6545C16.6321 27.4394 17.3404 29.1513 18.603 30.4135L19.8998 31.7104L29.418 41.2285L38.9362 31.7104L40.233 30.4135C40.8582 29.7886 41.3536 29.0467 41.6925 28.2301C42.0314 27.4136 42.2051 26.5384 42.2051 25.6545C42.2051 24.7705 42.0314 23.8953 41.6925 23.0787C41.3536 22.2622 40.8582 21.5202 40.233 20.8954Z" stroke="white" stroke-width="2" stroke-linecap="round" stroke-linejoin="round"/>
</svg>
