<svg width="100" height="100" viewBox="0 0 100 100" fill="none" xmlns="http://www.w3.org/2000/svg">
<path d="M76.875 44.0625H71.5625C71.25 44.0625 70.9375 44.375 70.7812 44.6875L68.5938 58.4375C68.5938 58.75 68.75 58.9062 69.0625 58.9062H71.875C72.1875 58.9062 72.3437 58.75 72.3437 58.4375L72.9687 54.5313C72.9687 54.2188 73.2812 53.9062 73.75 53.9062H75.4687C79.0625 53.9062 81.0937 52.1875 81.5625 48.75C81.875 47.3438 81.5625 46.0937 80.9375 45.3125C80 44.5312 78.5937 44.0625 76.875 44.0625ZM77.5 49.2187C77.1875 51.0937 75.7812 51.0938 74.375 51.0938H73.4375L74.0625 47.5C74.0625 47.3437 74.2187 47.1875 74.5312 47.1875H74.8438C75.7812 47.1875 76.7188 47.1875 77.1875 47.8125C77.5 47.9687 77.5 48.4375 77.5 49.2187Z" fill="black"/>
<path d="M38.5938 44.0625H33.2812C32.9687 44.0625 32.6562 44.375 32.5 44.6875L30.3125 58.4375C30.3125 58.75 30.4688 58.9062 30.7813 58.9062H33.2812C33.5937 58.9062 33.9062 58.5937 34.0625 58.2812L34.6875 54.5313C34.6875 54.2188 35 53.9062 35.4688 53.9062H37.1875C40.7812 53.9062 42.8125 52.1875 43.2813 48.75C43.5938 47.3438 43.2812 46.0937 42.6562 45.3125C41.7187 44.5312 40.4688 44.0625 38.5938 44.0625ZM39.2188 49.2187C38.9063 51.0937 37.5 51.0938 36.0938 51.0938H35.3125L35.9375 47.5C35.9375 47.3437 36.0937 47.1875 36.4062 47.1875H36.7188C37.6563 47.1875 38.5938 47.1875 39.0625 47.8125C39.2188 47.9687 39.375 48.4375 39.2188 49.2187ZM54.6875 49.0625H52.1875C52.0313 49.0625 51.7187 49.2187 51.7187 49.375L51.5625 50.1562L51.4063 49.8437C50.7813 49.0625 49.6875 48.75 48.4375 48.75C45.625 48.75 43.125 50.9375 42.6562 53.9062C42.3437 55.4687 42.8125 56.875 43.5938 57.8125C44.375 58.75 45.4688 59.0625 46.875 59.0625C49.2188 59.0625 50.4688 57.6563 50.4688 57.6563L50.3125 58.4375C50.3125 58.75 50.4688 58.9062 50.7812 58.9062H53.125C53.4375 58.9062 53.75 58.5937 53.9062 58.2812L55.3125 49.5312C55.1563 49.375 54.8438 49.0625 54.6875 49.0625ZM51.0938 54.0625C50.7813 55.4687 49.6875 56.5625 48.125 56.5625C47.3438 56.5625 46.7188 56.25 46.4063 55.9375C46.0938 55.4687 45.9375 54.8437 45.9375 54.0625C46.0938 52.6562 47.3438 51.5625 48.75 51.5625C49.5313 51.5625 50 51.875 50.4688 52.1875C50.9375 52.6563 51.0938 53.4375 51.0938 54.0625Z" fill="#212121"/>
<path d="M92.8127 49.0625H90.3127C90.1565 49.0625 89.844 49.2187 89.844 49.375L89.6877 50.1562L89.5315 49.8437C88.9065 49.0625 87.8127 48.75 86.5627 48.75C83.7502 48.75 81.2502 50.9375 80.7815 53.9062C80.469 55.4687 80.9377 56.875 81.719 57.8125C82.5002 58.75 83.594 59.0625 85.0002 59.0625C87.344 59.0625 88.594 57.6563 88.594 57.6563L88.4377 58.4375C88.4377 58.75 88.594 58.9063 88.9065 58.9063H91.2502C91.5627 58.9063 91.8752 58.5937 92.0315 58.2812L93.4377 49.5313C93.2815 49.375 93.1252 49.0625 92.8127 49.0625ZM89.219 54.0625C88.9065 55.4687 87.8127 56.5625 86.2502 56.5625C85.469 56.5625 84.844 56.25 84.5315 55.9375C84.219 55.4687 84.0627 54.8437 84.0627 54.0625C84.219 52.6562 85.469 51.5625 86.8752 51.5625C87.6565 51.5625 88.1252 51.875 88.594 52.1875C89.219 52.6563 89.3752 53.4375 89.219 54.0625Z" fill="black"/>
<path d="M68.2813 49.0625H65.625C65.3125 49.0625 65.1562 49.2188 65 49.375L61.5625 54.6875L60 49.6875C59.8438 49.375 59.6875 49.2188 59.2188 49.2188H56.7187C56.4062 49.2188 56.25 49.5312 56.25 49.8438L59.0625 58.125L56.4062 61.875C56.25 62.1875 56.4062 62.6562 56.7187 62.6562H59.2188C59.5313 62.6562 59.6875 62.5 59.8437 62.3438L68.4375 50C68.9062 49.5313 68.5938 49.0625 68.2813 49.0625Z" fill="#212121"/>
<path d="M95.7812 44.531L93.5938 58.5935C93.5938 58.906 93.75 59.0623 94.0625 59.0623H96.25C96.5625 59.0623 96.875 58.7498 97.0312 58.4373L99.2187 44.6873C99.2187 44.3748 99.0625 44.2185 98.75 44.2185H96.25C96.0937 44.0623 95.9375 44.2185 95.7812 44.531Z" fill="black"/>
</svg>
